<?xml version="1.0" encoding="UTF-8" standalone="no"?>
<!-- Created with Inkscape (http://www.inkscape.org/) -->

<svg
   xmlns:dc="http://purl.org/dc/elements/1.1/"
   xmlns:cc="http://creativecommons.org/ns#"
   xmlns:rdf="http://www.w3.org/1999/02/22-rdf-syntax-ns#"
   xmlns:svg="http://www.w3.org/2000/svg"
   xmlns="http://www.w3.org/2000/svg"
   xmlns:xlink="http://www.w3.org/1999/xlink"
   xmlns:sodipodi="http://sodipodi.sourceforge.net/DTD/sodipodi-0.dtd"
   xmlns:inkscape="http://www.inkscape.org/namespaces/inkscape"
   width="64"
   height="64"
   id="svg4741"
   version="1.1"
   inkscape:version="0.91 r13725"
   viewBox="0 0 64 64"
   sodipodi:docname="mpls-node.svg">
  <defs
     id="defs4743">
    <symbol
       id="symbol7266">
      <path
         style="fill:#999999"
         d="M 10.71875 0 C 4.8817234 0 0.18164063 4.7000828 0.18164062 10.537109 L 0.18164062 53.646484 C 0.18164062 59.483511 4.8817234 64.181641 10.71875 64.181641 L 53.646484 64.181641 C 59.483511 64.181641 64.181641 59.483511 64.181641 53.646484 L 64.181641 10.537109 C 64.181641 4.7000828 59.483511 3.3816727e-017 53.646484 0 L 10.71875 0 z M 35.763672 7.4589844 L 44.691406 7.4589844 C 44.887705 7.4589844 45.044922 7.616201 45.044922 7.8125 L 45.044922 39.972656 L 51.626953 39.927734 L 46.083984 47.142578 L 40.541016 54.357422 L 34.820312 47.21875 L 29.099609 40.080078 L 35.410156 40.037109 L 35.410156 7.8125 C 35.410156 7.616201 35.567373 7.4589844 35.763672 7.4589844 z M 22.404297 7.828125 L 27.947266 15.042969 L 33.490234 22.257812 L 26.908203 22.212891 L 26.908203 54.373047 C 26.908203 54.569346 26.750986 54.726562 26.554688 54.726562 L 17.626953 54.726562 C 17.430654 54.726562 17.273438 54.569346 17.273438 54.373047 L 17.273438 22.148438 L 10.962891 22.105469 L 16.683594 14.966797 L 22.404297 7.828125 z "
         id="rect3334" />
    </symbol>
  </defs>
  <sodipodi:namedview
     id="base"
     pagecolor="#ffffff"
     bordercolor="#666666"
     borderopacity="1.0"
     inkscape:pageopacity="0.0"
     inkscape:pageshadow="2"
     inkscape:zoom="5.5"
     inkscape:cx="-32.181818"
     inkscape:cy="31.818182"
     inkscape:current-layer="layer1"
     showgrid="true"
     inkscape:document-units="px"
     inkscape:grid-bbox="true"
     inkscape:window-width="1920"
     inkscape:window-height="1033"
     inkscape:window-x="-4"
     inkscape:window-y="-4"
     inkscape:window-maximized="1" />
  <metadata
     id="metadata4746">
    <rdf:RDF>
      <cc:Work
         rdf:about="">
        <dc:format>image/svg+xml</dc:format>
        <dc:type
           rdf:resource="http://purl.org/dc/dcmitype/StillImage" />
        <dc:title />
      </cc:Work>
    </rdf:RDF>
  </metadata>
  <g
     id="layer1"
     inkscape:label="Layer 1"
     inkscape:groupmode="layer">
    <use
       xlink:href="#symbol7266"
       id="use7269" />
  </g>
</svg>
