<?xml version="1.0" encoding="UTF-8" standalone="no"?>
<!-- Created with Inkscape (http://www.inkscape.org/) -->

<svg
   xmlns:dc="http://purl.org/dc/elements/1.1/"
   xmlns:cc="http://creativecommons.org/ns#"
   xmlns:rdf="http://www.w3.org/1999/02/22-rdf-syntax-ns#"
   xmlns:svg="http://www.w3.org/2000/svg"
   xmlns="http://www.w3.org/2000/svg"
   xmlns:sodipodi="http://sodipodi.sourceforge.net/DTD/sodipodi-0.dtd"
   xmlns:inkscape="http://www.inkscape.org/namespaces/inkscape"
   width="64"
   height="64"
   id="svg4741"
   version="1.1"
   inkscape:version="0.91 r13725"
   viewBox="0 0 64 64"
   sodipodi:docname="node-edge-2.svg">
  <defs
     id="defs4743" />
  <sodipodi:namedview
     id="base"
     pagecolor="#ffffff"
     bordercolor="#666666"
     borderopacity="1.0"
     inkscape:pageopacity="0.0"
     inkscape:pageshadow="2"
     inkscape:zoom="5.5"
     inkscape:cx="-0.18181818"
     inkscape:cy="12.859612"
     inkscape:current-layer="layer1"
     showgrid="true"
     inkscape:document-units="px"
     inkscape:grid-bbox="true"
     inkscape:window-width="1920"
     inkscape:window-height="1033"
     inkscape:window-x="-4"
     inkscape:window-y="-4"
     inkscape:window-maximized="1" />
  <metadata
     id="metadata4746">
    <rdf:RDF>
      <cc:Work
         rdf:about="">
        <dc:format>image/svg+xml</dc:format>
        <dc:type
           rdf:resource="http://purl.org/dc/dcmitype/StillImage" />
        <dc:title />
      </cc:Work>
    </rdf:RDF>
  </metadata>
  <g
     id="layer1"
     inkscape:label="Layer 1"
     inkscape:groupmode="layer">
    <path
       style="fill:#999999"
       d="M 32.091797 0.36328125 A 31.727272 31.636362 0 0 0 0.36328125 32 A 31.727272 31.636362 0 0 0 32.091797 63.636719 A 31.727272 31.636362 0 0 0 63.818359 32 A 31.727272 31.636362 0 0 0 32.091797 0.36328125 z M 50.691406 9.6308594 L 55.363281 14.841797 L 42.025391 27.607422 L 44.839844 30.75 L 39.816406 30.386719 L 34.792969 30.023438 L 34.75 24.734375 L 34.707031 19.443359 L 37.355469 22.396484 L 50.691406 9.6308594 z M 13.419922 10.835938 L 18.578125 10.849609 L 23.738281 10.863281 L 20.830078 13.546875 L 33.128906 27.363281 L 27.996094 32.095703 L 15.695312 18.279297 L 12.601562 21.130859 L 13.011719 15.982422 L 13.419922 10.835938 z M 36.886719 31.443359 L 49.162109 45.285156 L 52.037109 42.564453 L 51.572266 47.833984 L 51.105469 53.101562 L 46.070312 53.042969 L 41.035156 52.982422 L 44.089844 50.087891 L 31.816406 36.246094 L 36.886719 31.443359 z M 19.574219 33.525391 L 24.720703 33.908203 L 29.863281 34.291016 L 29.896484 39.455078 L 29.927734 44.619141 L 27.050781 41.539062 L 13.773438 54.369141 L 9 49.255859 L 22.277344 36.423828 L 19.574219 33.525391 z "
       id="path3334" />
  </g>
</svg>
