<?xml version="1.0" encoding="UTF-8" standalone="no"?>
<!-- Created with Inkscape (http://www.inkscape.org/) -->

<svg
   xmlns:dc="http://purl.org/dc/elements/1.1/"
   xmlns:cc="http://creativecommons.org/ns#"
   xmlns:rdf="http://www.w3.org/1999/02/22-rdf-syntax-ns#"
   xmlns:svg="http://www.w3.org/2000/svg"
   xmlns="http://www.w3.org/2000/svg"
   xmlns:sodipodi="http://sodipodi.sourceforge.net/DTD/sodipodi-0.dtd"
   xmlns:inkscape="http://www.inkscape.org/namespaces/inkscape"
   width="64"
   height="64"
   id="svg4741"
   version="1.1"
   inkscape:version="0.91 r13725"
   viewBox="0 0 64 64"
   sodipodi:docname="host.svg">
  <defs
     id="defs4743" />
  <sodipodi:namedview
     id="base"
     pagecolor="#ffffff"
     bordercolor="#666666"
     borderopacity="1.0"
     inkscape:pageopacity="0.0"
     inkscape:pageshadow="2"
     inkscape:zoom="5.5"
     inkscape:cx="-0.18181818"
     inkscape:cy="32"
     inkscape:current-layer="layer1"
     showgrid="true"
     inkscape:document-units="px"
     inkscape:grid-bbox="true"
     inkscape:window-width="1920"
     inkscape:window-height="1033"
     inkscape:window-x="-4"
     inkscape:window-y="-4"
     inkscape:window-maximized="1" />
  <metadata
     id="metadata4746">
    <rdf:RDF>
      <cc:Work
         rdf:about="">
        <dc:format>image/svg+xml</dc:format>
        <dc:type
           rdf:resource="http://purl.org/dc/dcmitype/StillImage" />
        <dc:title />
      </cc:Work>
    </rdf:RDF>
  </metadata>
  <g
     id="layer1"
     inkscape:label="Layer 1"
     inkscape:groupmode="layer">
    <path
       style="fill:#999999"
       d="M 8.1503906 0.36328125 C 5.548362 0.36328125 3.4550781 2.4585182 3.4550781 5.0605469 L 3.4550781 40.03125 C 3.4550781 42.633279 5.548362 44.726562 8.1503906 44.726562 L 55.666016 44.726562 C 58.268044 44.726562 60.363281 42.633279 60.363281 40.03125 L 60.363281 5.0605469 C 60.363281 2.4585182 58.268044 0.36328125 55.666016 0.36328125 L 8.1503906 0.36328125 z M 15.351562 5.6367188 L 48.103516 5.6367188 C 50.664866 5.6367188 52.726562 7.6984151 52.726562 10.259766 L 52.726562 33.740234 C 52.726562 36.301585 50.664866 38.363281 48.103516 38.363281 L 15.351562 38.363281 C 12.790212 38.363281 10.726562 36.301585 10.726562 33.740234 L 10.726562 10.259766 C 10.726562 7.6984151 12.790212 5.6367188 15.351562 5.6367188 z "
       id="rect3343" />
    <rect
       style="fill:#999999"
       id="rect3360"
       width="63.454544"
       height="19.81818"
       x="0.36363637"
       y="44.545456"
       ry="5.8392873" />
  </g>
</svg>
