<?xml version="1.0" encoding="UTF-8" standalone="no"?>
<!-- Created with Inkscape (http://www.inkscape.org/) -->

<svg
   xmlns:dc="http://purl.org/dc/elements/1.1/"
   xmlns:cc="http://creativecommons.org/ns#"
   xmlns:rdf="http://www.w3.org/1999/02/22-rdf-syntax-ns#"
   xmlns:svg="http://www.w3.org/2000/svg"
   xmlns="http://www.w3.org/2000/svg"
   xmlns:sodipodi="http://sodipodi.sourceforge.net/DTD/sodipodi-0.dtd"
   xmlns:inkscape="http://www.inkscape.org/namespaces/inkscape"
   width="64"
   height="64"
   id="svg3336"
   version="1.1"
   inkscape:version="0.91 r13725"
   viewBox="0 0 64 64"
   sodipodi:docname="layer.svg">
  <defs
     id="defs3338" />
  <sodipodi:namedview
     id="base"
     pagecolor="#ffffff"
     bordercolor="#666666"
     borderopacity="1.0"
     inkscape:pageopacity="0.0"
     inkscape:pageshadow="2"
     inkscape:zoom="5.5"
     inkscape:cx="29.272727"
     inkscape:cy="32"
     inkscape:current-layer="layer1"
     showgrid="true"
     inkscape:document-units="px"
     inkscape:grid-bbox="true"
     inkscape:window-width="1920"
     inkscape:window-height="1033"
     inkscape:window-x="-4"
     inkscape:window-y="-4"
     inkscape:window-maximized="1" />
  <metadata
     id="metadata3341">
    <rdf:RDF>
      <cc:Work
         rdf:about="">
        <dc:format>image/svg+xml</dc:format>
        <dc:type
           rdf:resource="http://purl.org/dc/dcmitype/StillImage" />
        <dc:title></dc:title>
      </cc:Work>
    </rdf:RDF>
  </metadata>
  <g
     id="layer1"
     inkscape:label="Layer 1"
     inkscape:groupmode="layer">
    <path
       id="rect3371"
       style="fill:#999999"
       d="m 15.572852,34.814521 32.667649,0 c 0.257191,0 0.464244,0.209018 0.464244,0.46865 l 0,17.339094 c 0,0.259632 -0.207053,0.46865 -0.464244,0.46865 l -32.667649,0 c -0.257192,0 -0.464245,-0.209018 -0.464245,-0.46865 l 0,-17.339094 c 0,-0.259632 0.207053,-0.46865 0.464245,-0.46865 z m 48.063514,1.884158 A 16.051488,16.392229 0 0 1 47.584878,53.090908 16.051488,16.392229 0 0 1 31.53339,36.698679 16.051488,16.392229 0 0 1 47.584878,20.306451 16.051488,16.392229 0 0 1 63.636366,36.698679 Z M 50.944489,25.582107 A 13.345134,13.942816 0 0 1 37.599356,39.524923 13.345134,13.942816 0 0 1 24.254222,25.582107 13.345134,13.942816 0 0 1 37.599356,11.639291 13.345134,13.942816 0 0 1 50.944489,25.582107 Z M 37.879326,20.589082 A 15.304907,14.22544 0 0 1 22.57442,34.814522 15.304907,14.22544 0 0 1 7.2695129,20.589082 15.304907,14.22544 0 0 1 22.57442,6.3636415 15.304907,14.22544 0 0 1 37.879326,20.589082 Z M 32.466613,36.698679 A 16.051488,16.392229 0 0 1 16.415126,53.090908 16.051488,16.392229 0 0 1 0.36363781,36.698679 16.051488,16.392229 0 0 1 16.415126,20.306451 16.051488,16.392229 0 0 1 32.466613,36.698679 Z"
       inkscape:connector-curvature="0" />
  </g>
</svg>
