<?xml version="1.0" encoding="UTF-8" standalone="no"?>
<!-- Created with Inkscape (http://www.inkscape.org/) -->

<svg
   xmlns:dc="http://purl.org/dc/elements/1.1/"
   xmlns:cc="http://creativecommons.org/ns#"
   xmlns:rdf="http://www.w3.org/1999/02/22-rdf-syntax-ns#"
   xmlns:svg="http://www.w3.org/2000/svg"
   xmlns="http://www.w3.org/2000/svg"
   xmlns:xlink="http://www.w3.org/1999/xlink"
   xmlns:sodipodi="http://sodipodi.sourceforge.net/DTD/sodipodi-0.dtd"
   xmlns:inkscape="http://www.inkscape.org/namespaces/inkscape"
   width="64"
   height="64"
   id="svg4741"
   version="1.1"
   inkscape:version="0.91 r13725"
   viewBox="0 0 64 64"
   sodipodi:docname="node-edge-3.svg">
  <defs
     id="defs4743">
    <symbol
       id="symbol7266">
      <path
         style="fill:#999999;stroke-width:0;stroke-miterlimit:4;stroke-dasharray:none"
         d="M 31.999197,0.18181818 A 31.818191,31.818191 0 0 0 0.18217335,32.000979 31.818191,31.818191 0 0 0 31.999197,63.818005 31.818191,31.818191 0 0 0 63.818359,32.000979 31.818191,31.818191 0 0 0 31.999197,0.18181818 Z m -9.751894,7.47680912 11.163944,14.3661537 -6.581728,0.03204 0,32.214363 -9.346011,0 0,-32.171639 -6.163027,0.02991 10.926822,-14.4708276 z m 13.42194,0.040588 9.346011,0 0,32.214363 6.581727,0.03204 -11.163942,14.366154 -10.926822,-14.470828 6.163026,0.02991 0,-32.1716389 z"
         id="path4749"
         inkscape:connector-curvature="0" />
    </symbol>
  </defs>
  <sodipodi:namedview
     id="base"
     pagecolor="#ffffff"
     bordercolor="#666666"
     borderopacity="1.0"
     inkscape:pageopacity="0.0"
     inkscape:pageshadow="2"
     inkscape:zoom="5.5"
     inkscape:cx="-32.181818"
     inkscape:cy="32"
     inkscape:current-layer="layer1"
     showgrid="true"
     inkscape:document-units="px"
     inkscape:grid-bbox="true"
     inkscape:window-width="1920"
     inkscape:window-height="1033"
     inkscape:window-x="-4"
     inkscape:window-y="-4"
     inkscape:window-maximized="1" />
  <metadata
     id="metadata4746">
    <rdf:RDF>
      <cc:Work
         rdf:about="">
        <dc:format>image/svg+xml</dc:format>
        <dc:type
           rdf:resource="http://purl.org/dc/dcmitype/StillImage" />
        <dc:title></dc:title>
      </cc:Work>
    </rdf:RDF>
  </metadata>
  <g
     id="layer1"
     inkscape:label="Layer 1"
     inkscape:groupmode="layer">
    <use
       xlink:href="#symbol7266"
       id="use7269" />
  </g>
</svg>
